<svg width="100%" height="100%" viewBox="0 0 80 80" fill="none" xmlns="http://www.w3.org/2000/svg" fit="" preserveAspectRatio="xMidYMid meet" focusable="false">
<path d="M6.81592 23.2161C7.77592 23.8241 8.66392 24.1761 9.51192 24.2641C10.5359 24.3681 10.9919 25.3761 11.7039 27.4881C12.2719 29.1681 12.9199 31.0721 14.5199 32.0881C16.4799 33.3201 17.5039 34.9121 17.8079 35.4481C17.9039 37.2401 18.5519 44.8801 22.2959 46.7601C25.1999 48.2081 26.3919 51.0641 25.4879 54.3841C24.4319 58.2641 24.2959 63.6961 27.0959 67.2881C28.4959 69.0881 30.9999 69.992 33.1599 69.992C34.2319 69.992 35.2239 69.7681 35.9359 69.3201C37.1119 68.5761 37.4639 67.2721 36.8239 65.9841C36.1519 64.6481 35.3439 63.8001 34.7439 63.1761C34.0079 62.4081 34.0239 62.3761 34.1199 62.1441C34.3279 61.6481 35.4799 60.6321 36.3999 59.8241C38.0879 58.3361 39.9999 56.6481 40.6959 54.7841C41.0799 53.7521 43.0639 52.1601 44.9679 50.6161C47.3359 48.7041 50.0239 46.5361 51.3919 44.1921C52.2319 42.7601 52.2399 41.2481 51.4159 39.9441C49.5839 37.0401 44.0639 35.8161 40.9359 36.0801C37.6879 36.3681 35.7359 34.2241 32.7439 30.9921L32.0959 30.3041C29.5199 27.5441 28.2079 27.5361 26.0639 28.6001C25.4239 28.9121 24.7039 29.2721 23.6559 29.4641C21.0079 29.9521 19.9519 28.1441 18.0559 23.5921C17.8399 23.0801 17.7519 22.7681 17.7039 22.5841C17.7519 22.5681 17.7999 22.5521 17.8399 22.5361C18.7279 22.2081 20.3919 21.6081 21.2399 18.8241C21.4719 18.0721 21.7679 17.5601 22.0399 17.4481C22.5039 17.2561 23.5999 17.8321 24.4799 18.2961C25.2799 18.7121 26.0959 19.1521 26.9599 19.3681C30.6799 20.3441 32.6719 19.0801 33.7759 15.0241C34.1519 13.6481 35.5999 13.1601 37.7679 12.5601C39.5439 12.0721 41.3759 11.5681 42.0719 9.96006C42.4399 9.08806 42.2239 8.47206 41.9839 8.10406C41.2959 7.08806 39.8879 7.11206 37.7599 7.15206C35.3839 7.20006 32.1199 7.25606 29.2879 5.92806C28.6959 5.64806 28.4559 5.38406 28.4319 5.24806C28.3999 5.10406 28.5359 4.67206 29.1999 3.99206C29.2479 3.94406 29.2719 3.88006 29.3119 3.81606C32.9519 2.65606 36.8319 2.00806 40.8559 2.00806C53.1199 2.00806 63.5839 8.33606 70.5359 17.3841C69.8799 19.0961 69.7519 19.1921 69.6559 19.2481C67.6319 18.3601 66.6399 19.6961 66.2159 20.2641C66.1119 20.4001 65.9519 20.6081 65.9039 20.6401C65.9039 20.6401 65.8239 20.6481 65.6319 20.5841C62.6319 19.5841 57.5599 20.3521 56.2239 24.3601L55.9519 25.1681C54.9439 28.0961 54.2159 30.2161 57.4159 33.4401C60.2479 36.3041 60.2479 37.4641 60.2479 38.8161C60.2479 40.1761 60.8639 40.9681 61.3679 41.3841C62.3999 42.2241 63.9599 42.4161 66.1519 41.9761L67.1439 41.7681C68.1119 41.5601 69.5679 41.2481 69.8639 41.3921C69.8639 41.3921 69.9199 41.5041 69.9119 41.8561C69.8879 42.5841 69.6079 43.0401 69.2719 43.5681C68.7519 44.4081 67.8799 45.8081 69.6719 47.6001C70.3439 48.2801 71.7599 49.6881 71.5839 50.4081C71.5439 50.5761 71.2719 51.1601 69.3999 51.7841C63.6319 53.6881 62.8559 56.32 63.4639 60.216C63.6079 61.144 63.4959 61.88 63.3839 62.592C63.0719 64.536 63.0719 66.0721 65.9039 68.0561" stroke="white" stroke-miterlimit="10"></path>
<path d="M2 40C2 19.016 19.016 2 40 2C60.984 2 78 19.016 78 40C78 55.616 68.584 69.032 55.12 74.872C50.488 76.888 45.376 78 40 78C19.016 78 2 60.984 2 40Z" stroke="white" stroke-miterlimit="10"></path>
</svg>