<svg width="100%" height="100%" viewBox="0 0 80 80" fill="none" xmlns="http://www.w3.org/2000/svg" fit="" preserveAspectRatio="xMidYMid meet" focusable="false">
<g clip-path="url('/ng/boats#clip0_1428_5224')">
<path d="M24.744 67.12H47.776C49.12 67.12 50.408 66.584 51.352 65.64C52.304 64.688 52.832 63.4 52.832 62.064V35.488C52.832 34.144 52.296 32.856 51.352 31.912C50.4 30.96 49.112 30.432 47.776 30.432H9.80795C8.46395 30.432 7.17595 30.968 6.23195 31.912C5.27995 32.864 4.75195 34.152 4.75195 35.488V62.064C4.75195 63.408 5.28795 64.696 6.23195 65.64C7.18395 66.592 8.47195 67.12 9.80795 67.12H24.744Z" stroke="white" stroke-width="0.75" stroke-miterlimit="10"></path>
<path d="M4.74414 62.056H52.8401" stroke="white" stroke-width="0.75" stroke-miterlimit="10"></path>
<path d="M25.8879 67.184L23.6079 77.776" stroke="white" stroke-width="0.75" stroke-miterlimit="10"></path>
<path d="M31.6958 67.184L33.9678 77.776" stroke="white" stroke-width="0.75" stroke-miterlimit="10"></path>
<path d="M20.3359 77.5439H37.2479" stroke="white" stroke-width="0.75" stroke-linecap="round" stroke-linejoin="round"></path>
<path d="M16.8962 27.2401C17.6031 27.2401 18.1762 26.667 18.1762 25.9601C18.1762 25.2531 17.6031 24.6801 16.8962 24.6801C16.1893 24.6801 15.6162 25.2531 15.6162 25.9601C15.6162 26.667 16.1893 27.2401 16.8962 27.2401Z" fill="white"></path>
<path d="M16.8962 22.032C17.6031 22.032 18.1762 21.459 18.1762 20.752C18.1762 20.0451 17.6031 19.472 16.8962 19.472C16.1893 19.472 15.6162 20.0451 15.6162 20.752C15.6162 21.459 16.1893 22.032 16.8962 22.032Z" fill="white"></path>
<path d="M16.8962 16.872C17.6031 16.872 18.1762 16.2989 18.1762 15.592C18.1762 14.8851 17.6031 14.312 16.8962 14.312C16.1893 14.312 15.6162 14.8851 15.6162 15.592C15.6162 16.2989 16.1893 16.872 16.8962 16.872Z" fill="white"></path>
<path d="M22.0798 16.872C22.7867 16.872 23.3598 16.2989 23.3598 15.592C23.3598 14.8851 22.7867 14.312 22.0798 14.312C21.3729 14.312 20.7998 14.8851 20.7998 15.592C20.7998 16.2989 21.3729 16.872 22.0798 16.872Z" fill="white"></path>
<path d="M27.2478 16.872C27.9547 16.872 28.5278 16.2989 28.5278 15.592C28.5278 14.8851 27.9547 14.312 27.2478 14.312C26.5409 14.312 25.9678 14.8851 25.9678 15.592C25.9678 16.2989 26.5409 16.872 27.2478 16.872Z" fill="white"></path>
<path d="M73.8879 53.3279C74.5948 53.3279 75.1679 52.7549 75.1679 52.0479C75.1679 51.341 74.5948 50.7679 73.8879 50.7679C73.181 50.7679 72.6079 51.341 72.6079 52.0479C72.6079 52.7549 73.181 53.3279 73.8879 53.3279Z" fill="white"></path>
<path d="M73.8879 47.92C74.5948 47.92 75.1679 47.3469 75.1679 46.64C75.1679 45.9331 74.5948 45.36 73.8879 45.36C73.181 45.36 72.6079 45.9331 72.6079 46.64C72.6079 47.3469 73.181 47.92 73.8879 47.92Z" fill="white"></path>
<path d="M73.8879 58.528C74.5948 58.528 75.1679 57.9549 75.1679 57.248C75.1679 56.5411 74.5948 55.968 73.8879 55.968C73.181 55.968 72.6079 56.5411 72.6079 57.248C72.6079 57.9549 73.181 58.528 73.8879 58.528Z" fill="white"></path>
<path d="M73.8879 63.688C74.5948 63.688 75.1679 63.115 75.1679 62.4081C75.1679 61.7011 74.5948 61.1281 73.8879 61.1281C73.181 61.1281 72.6079 61.7011 72.6079 62.4081C72.6079 63.115 73.181 63.688 73.8879 63.688Z" fill="white"></path>
<path d="M68.7121 63.688C69.4191 63.688 69.9921 63.115 69.9921 62.4081C69.9921 61.7011 69.4191 61.1281 68.7121 61.1281C68.0052 61.1281 67.4321 61.7011 67.4321 62.4081C67.4321 63.115 68.0052 63.688 68.7121 63.688Z" fill="white"></path>
<path d="M62.2642 62.4081C62.2642 61.7041 62.8402 61.1281 63.5442 61.1281C64.2482 61.1281 64.8242 61.7041 64.8242 62.4081C64.8242 63.1121 64.2482 63.688 63.5442 63.688C62.8402 63.688 62.2642 63.1121 62.2642 62.4081Z" fill="white"></path>
<path d="M56.4961 62.4081C56.4961 61.7041 57.0721 61.1281 57.7761 61.1281C58.4801 61.1281 59.0561 61.7041 59.0561 62.4081C59.0561 63.1121 58.4801 63.688 57.7761 63.688C57.0721 63.688 56.4961 63.1121 56.4961 62.4081Z" fill="white"></path>
<path d="M33.1118 27.016V23.256C33.1118 20.856 35.0718 18.896 37.4718 18.896H70.8958C73.2958 18.896 75.2558 20.856 75.2558 23.256V28.184C75.2558 30.584 73.2958 32.544 70.8958 32.544H55.8558" stroke="white" stroke-width="0.75" stroke-linecap="round" stroke-linejoin="round"></path>
<path d="M36.7041 18.808L40.2081 5.656C40.7681 3.568 41.6641 2.304 43.3041 2.304L65.0481 2.224C66.6881 2.224 67.9201 3.88 68.4001 5.72L71.3521 18.76" stroke="white" stroke-width="0.75" stroke-linecap="round" stroke-linejoin="round"></path>
<path d="M71.3921 32.5439V39.0079" stroke="white" stroke-width="0.75" stroke-linecap="round" stroke-linejoin="round"></path>
<path d="M41.8642 27.336C42.7478 27.336 43.4642 26.6196 43.4642 25.736C43.4642 24.8523 42.7478 24.136 41.8642 24.136C40.9805 24.136 40.2642 24.8523 40.2642 25.736C40.2642 26.6196 40.9805 27.336 41.8642 27.336Z" fill="white"></path>
<path d="M66.2318 27.336C67.1155 27.336 67.8318 26.6196 67.8318 25.736C67.8318 24.8523 67.1155 24.136 66.2318 24.136C65.3482 24.136 64.6318 24.8523 64.6318 25.736C64.6318 26.6196 65.3482 27.336 66.2318 27.336Z" fill="white"></path>
</g>
<defs>
<clipPath id="clip0_1428_5224">
<rect width="80" height="80" fill="white"></rect>
</clipPath>
</defs>
</svg>